<svg width="161" height="19" viewBox="0 0 161 19" fill="none" xmlns="http://www.w3.org/2000/svg">
<path d="M44.3647 0.219116H52.305V1.97247H46.4702V8.20134H52.0405V9.95652H46.4702V16.1854H52.305V17.9387H44.3647V0.219116Z" fill="white"/>
<path d="M65.7627 0.219116H67.8682V16.1872H73.703V17.9406H65.7627V0.219116Z" fill="white"/>
<path d="M121.24 1.97429H117.622V0.219116H126.943V1.97247H123.325V17.9406H121.242V1.97429H121.24Z" fill="white"/>
<path d="M141.21 0.219116H144.081L147.745 17.9406H145.596L144.915 14.3445H140.376L139.695 17.9406H137.546L141.21 0.219116ZM144.587 12.5911L142.678 2.45779L142.636 2.30453L142.614 2.414L140.706 12.5929H144.588L144.587 12.5911Z" fill="white"/>
<path d="M149.31 0.219116H151.878L155.167 13.7515L158.455 0.219116H161V17.9406H159.07V4.86796L155.846 17.9406H154.485L151.261 4.86796V17.9406H149.309V0.219116H149.31Z" fill="white"/>
<path d="M83.2283 0.219116H75.2881V17.9424H83.2283V16.189H77.3936V9.95834H79.4936V8.20316H77.3936V1.97429H83.2283V0.219116Z" fill="white"/>
<path d="M82.9639 6.42078H79.4937V8.19967H82.9639V6.42078Z" fill="white"/>
<path d="M136.504 0.219238H128.563V17.9425H136.504V16.1892H130.669V9.95846H132.769V8.20329H130.669V1.97442H136.504V0.219238Z" fill="white"/>
<path d="M136.239 6.4209H132.769V8.19979H136.239V6.4209Z" fill="white"/>
<path d="M33.0184 3.79892H35.1147V1.97442H33.8814V0.219238H31.7759V1.97442H33.0184V3.79892Z" fill="white"/>
<path d="M40.3234 0.219238L37.4297 15.7276L37.3841 15.9027L37.3422 15.7057L35.1144 3.79892H33.0181L35.9592 17.9425H38.8328L42.4727 0.219238H40.3234Z" fill="white"/>
<path d="M63.5193 16.362V13.1363C63.5193 11.2297 62.7749 9.93609 61.0635 9.40698C62.9008 8.73921 63.543 7.49307 63.5613 5.23251V3.66343H62.2951V1.88453H61.0179V0.222406C60.9358 0.222406 53.999 0.220581 53.999 0.220581V17.942H56.1045V10.2882H58.6041C59.832 10.2882 61.3901 10.6166 61.3901 12.9629V16.3638C61.3901 16.9988 61.412 17.6775 61.6309 17.942H63.7583C63.5394 17.6136 63.5175 16.9988 63.5175 16.3638L63.5193 16.362ZM58.6278 8.61879H56.1063V1.88636C56.1063 1.88636 58.6862 1.88636 60.1075 1.88818V3.66525H61.4156V5.23433V5.76891C61.4156 7.63356 60.7351 8.61879 58.6296 8.61879H58.6278Z" fill="white"/>
<path d="M31.0418 16.3621V13.1364C31.0418 11.2298 30.2974 9.93621 28.586 9.4071C30.4233 8.73933 31.0655 7.49319 31.0837 5.23263V3.66355H29.8175V1.88465H28.5404V0.222528C28.4583 0.222528 21.5215 0.220703 21.5215 0.220703V17.9422H23.627V10.2883H26.1265C27.3544 10.2883 28.9126 10.6168 28.9126 12.9631V16.364C28.9126 16.9989 28.9345 17.6776 29.1534 17.9422H31.2808C31.0618 17.6137 31.0399 16.9989 31.0399 16.364L31.0418 16.3621ZM26.1503 8.61891H23.6288V1.88648C23.6288 1.88648 26.2086 1.88648 27.6299 1.8883V3.66537H28.9381V5.23445V5.76903C28.9381 7.63368 28.2576 8.61891 26.1521 8.61891H26.1503Z" fill="white"/>
<path d="M19.2816 0.219238H11.3413V17.9425H19.2816V16.1892H13.4468V9.95846H15.5468V8.20329H13.4468V1.97442H19.2816V0.219238Z" fill="white"/>
<path d="M19.0171 6.4209H15.5469V8.19979H19.0171V6.4209Z" fill="white"/>
<path d="M102.47 8.58051L100.08 7.21943C98.9594 6.5845 98.1713 5.88206 98.1713 4.30386V4.04113C98.1713 2.35164 99.005 1.75867 100.629 1.75867C102.253 1.75867 103.216 2.35164 103.216 4.5447V5.61933H105.343V4.67606C105.343 1.58352 103.72 0.0253906 100.651 0.0253906C97.5819 0.0253906 96.0439 1.69299 96.0439 4.34765C96.0439 6.67207 97.2061 7.85618 98.8938 8.86696L101.286 10.2244C102.601 10.9487 103.325 11.6274 103.325 13.5158V13.9099C103.325 15.7745 102.581 16.4533 100.782 16.4533C98.8518 16.4533 97.9085 15.7089 97.9085 13.4702V11.5399H99.1437V9.78651H97.0382V11.5399H95.7866V13.3644H95.7903C95.8815 16.5883 97.5017 18.1865 100.758 18.1865C104.015 18.1865 105.475 16.5627 105.475 13.514C105.475 10.7061 104.225 9.60953 102.47 8.57868V8.58051Z" fill="white"/>
<path d="M84.6572 13.0525V11.8447H86.7864V13.4448C86.7864 15.6835 87.7297 16.4279 89.66 16.4279C91.459 16.4279 92.2034 15.7492 92.2034 13.8845V13.4904C92.2034 11.602 91.4809 10.9233 90.1636 10.199L87.7717 8.84157C86.084 7.83079 84.9218 6.64668 84.9218 4.32226C84.9218 1.6676 86.3923 0 89.5287 0C92.665 0 94.2213 1.55813 94.2213 4.65067V5.59394H92.0939V4.51931C92.0939 2.32625 91.1506 1.73328 89.5068 1.73328C87.8629 1.73328 87.0492 2.32625 87.0492 4.01574V4.27847C87.0492 5.85667 87.8392 6.55911 88.9576 7.19586L91.3477 8.55694C93.1029 9.58779 94.3527 10.6843 94.3527 13.4922C94.3527 16.541 92.9496 18.1648 89.6363 18.1648C86.323 18.1648 84.6572 16.4753 84.6572 13.0544V13.0525Z" fill="white"/>
<path d="M0 13.0525V11.8447H2.1292V13.4448C2.1292 15.6835 3.07247 16.4279 5.0028 16.4279C6.80177 16.4279 7.54617 15.7492 7.54617 13.8845V13.4904C7.54617 11.602 6.82366 10.9233 5.50637 10.199L3.11444 8.84157C1.42677 7.82896 0.264554 6.64486 0.264554 4.32226C0.264554 1.6676 1.73328 0 4.86961 0C8.00594 0 9.56225 1.55813 9.56225 4.65067V5.59394H7.43487V4.51931C7.43487 2.32625 6.4916 1.73328 4.84772 1.73328C3.20384 1.73328 2.39011 2.32625 2.39011 4.01574V4.27847C2.39011 5.85667 3.18012 6.55911 4.29854 7.19586L6.68865 8.55694C8.44382 9.58779 9.69361 10.6843 9.69361 13.4922C9.69361 16.541 8.29057 18.1648 4.97726 18.1648C1.66395 18.1648 0 16.4717 0 13.0525Z" fill="white"/>
<path d="M117.395 16.1122H107.365V17.8911H117.395V16.1122Z" fill="white"/>
</svg>
